<mxfile host="Electron" modified="2024-01-18T11:12:44.063Z" agent="Mozilla/5.0 (Windows NT 10.0; Win64; x64) AppleWebKit/537.36 (KHTML, like Gecko) draw.io/22.1.18 Chrome/120.0.6099.199 Electron/28.1.2 Safari/537.36" etag="iem3RUfn9ofEMZf0VpzI" version="22.1.18" type="device">
  <diagram name="Page-1" id="QEGEIfdbJsdVj-Z1kgoe">
    <mxGraphModel dx="1262" dy="915" grid="1" gridSize="10" guides="1" tooltips="1" connect="1" arrows="1" fold="1" page="1" pageScale="1" pageWidth="827" pageHeight="1169" math="0" shadow="0">
      <root>
        <mxCell id="0" />
        <mxCell id="1" parent="0" />
        <mxCell id="HJ6NpnuFAOiJMe3mfY7o-32" value="" style="ellipse;whiteSpace=wrap;html=1;aspect=fixed;" vertex="1" parent="1">
          <mxGeometry x="30" y="30" width="840" height="840" as="geometry" />
        </mxCell>
        <mxCell id="7TM_OdGEtOvxObzj1Llh-1" value="" style="ellipse;whiteSpace=wrap;html=1;aspect=fixed;" parent="1" vertex="1">
          <mxGeometry x="40" y="40" width="820" height="820" as="geometry" />
        </mxCell>
        <mxCell id="7TM_OdGEtOvxObzj1Llh-2" value="" style="endArrow=none;html=1;rounded=0;" parent="1" edge="1">
          <mxGeometry width="50" height="50" relative="1" as="geometry">
            <mxPoint x="840" y="320" as="sourcePoint" />
            <mxPoint x="1060" y="320" as="targetPoint" />
          </mxGeometry>
        </mxCell>
        <mxCell id="7TM_OdGEtOvxObzj1Llh-5" value="" style="curved=1;endArrow=none;html=1;rounded=0;endFill=0;exitX=0.496;exitY=1;exitDx=0;exitDy=0;exitPerimeter=0;" parent="1" source="7TM_OdGEtOvxObzj1Llh-1" edge="1">
          <mxGeometry width="50" height="50" relative="1" as="geometry">
            <mxPoint x="880" y="740" as="sourcePoint" />
            <mxPoint x="1060" y="320" as="targetPoint" />
            <Array as="points">
              <mxPoint x="710" y="863" />
              <mxPoint x="910" y="790" />
              <mxPoint x="1050" y="600" />
            </Array>
          </mxGeometry>
        </mxCell>
        <mxCell id="7TM_OdGEtOvxObzj1Llh-6" value="" style="rounded=0;whiteSpace=wrap;html=1;rotation=30;fillColor=#fff2cc;strokeColor=#d6b656;" parent="1" vertex="1">
          <mxGeometry x="320" y="350" width="160" height="80" as="geometry" />
        </mxCell>
        <mxCell id="HJ6NpnuFAOiJMe3mfY7o-2" value="" style="rounded=0;whiteSpace=wrap;html=1;fillColor=#dae8fc;strokeColor=#6c8ebf;" vertex="1" parent="1">
          <mxGeometry x="840" y="300" width="220" height="20" as="geometry" />
        </mxCell>
        <mxCell id="HJ6NpnuFAOiJMe3mfY7o-3" value="" style="rounded=0;whiteSpace=wrap;html=1;fillColor=#e1d5e7;strokeColor=#9673a6;" vertex="1" parent="1">
          <mxGeometry x="850" y="330" width="200" height="20" as="geometry" />
        </mxCell>
        <mxCell id="HJ6NpnuFAOiJMe3mfY7o-6" value="" style="ellipse;whiteSpace=wrap;html=1;aspect=fixed;fillColor=#ffe6cc;strokeColor=#d79b00;" vertex="1" parent="1">
          <mxGeometry x="660" y="360" width="100" height="100" as="geometry" />
        </mxCell>
        <mxCell id="HJ6NpnuFAOiJMe3mfY7o-8" value="" style="rounded=0;whiteSpace=wrap;html=1;rotation=60;fillColor=#d5e8d4;strokeColor=#82b366;" vertex="1" parent="1">
          <mxGeometry x="703.17" y="204.51" width="150" height="70" as="geometry" />
        </mxCell>
        <mxCell id="HJ6NpnuFAOiJMe3mfY7o-9" value="" style="ellipse;whiteSpace=wrap;html=1;aspect=fixed;fillColor=#ffe6cc;strokeColor=#d79b00;" vertex="1" parent="1">
          <mxGeometry x="580" y="490" width="100" height="100" as="geometry" />
        </mxCell>
        <mxCell id="HJ6NpnuFAOiJMe3mfY7o-10" value="" style="rounded=0;whiteSpace=wrap;html=1;rotation=55;fillColor=#ffe6cc;strokeColor=#d79b00;" vertex="1" parent="1">
          <mxGeometry x="710" y="610" width="200" height="180" as="geometry" />
        </mxCell>
        <mxCell id="HJ6NpnuFAOiJMe3mfY7o-12" value="" style="rounded=0;whiteSpace=wrap;html=1;rotation=-215;fillColor=#d5e8d4;strokeColor=#82b366;" vertex="1" parent="1">
          <mxGeometry x="920" y="670" width="40" height="40" as="geometry" />
        </mxCell>
        <mxCell id="HJ6NpnuFAOiJMe3mfY7o-13" value="" style="rounded=0;whiteSpace=wrap;html=1;rotation=-215;fillColor=#d5e8d4;strokeColor=#82b366;" vertex="1" parent="1">
          <mxGeometry x="730" y="790" width="40" height="40" as="geometry" />
        </mxCell>
        <mxCell id="HJ6NpnuFAOiJMe3mfY7o-14" value="" style="rounded=0;whiteSpace=wrap;html=1;rotation=105;fillColor=#f8cecc;strokeColor=#b85450;" vertex="1" parent="1">
          <mxGeometry x="941.46" y="601.9" width="70" height="60" as="geometry" />
        </mxCell>
        <mxCell id="HJ6NpnuFAOiJMe3mfY7o-16" value="" style="rounded=0;whiteSpace=wrap;html=1;rotation=-40;fillColor=#d5e8d4;strokeColor=#82b366;" vertex="1" parent="1">
          <mxGeometry x="160" y="130" width="120" height="80" as="geometry" />
        </mxCell>
        <mxCell id="HJ6NpnuFAOiJMe3mfY7o-18" value="" style="rounded=0;whiteSpace=wrap;html=1;rotation=-30;fillColor=#f8cecc;strokeColor=#b85450;" vertex="1" parent="1">
          <mxGeometry x="280" y="80" width="60" height="60" as="geometry" />
        </mxCell>
        <mxCell id="HJ6NpnuFAOiJMe3mfY7o-19" value="" style="rounded=0;whiteSpace=wrap;html=1;rotation=-60;fillColor=#f8cecc;strokeColor=#b85450;" vertex="1" parent="1">
          <mxGeometry x="370" y="590" width="60" height="90" as="geometry" />
        </mxCell>
        <mxCell id="HJ6NpnuFAOiJMe3mfY7o-20" value="" style="rounded=0;whiteSpace=wrap;html=1;rotation=15;fillColor=#fff2cc;strokeColor=#d6b656;" vertex="1" parent="1">
          <mxGeometry x="270" y="740" width="120" height="80" as="geometry" />
        </mxCell>
        <mxCell id="HJ6NpnuFAOiJMe3mfY7o-21" value="" style="rounded=0;whiteSpace=wrap;html=1;fillColor=#f5f5f5;strokeColor=#666666;fontColor=#333333;" vertex="1" parent="1">
          <mxGeometry x="840" y="420" width="140" height="140" as="geometry" />
        </mxCell>
        <mxCell id="HJ6NpnuFAOiJMe3mfY7o-5" value="" style="rounded=0;whiteSpace=wrap;html=1;rotation=4;fillColor=#ffe6cc;strokeColor=#d79b00;" vertex="1" parent="1">
          <mxGeometry x="940" y="360" width="100" height="200" as="geometry" />
        </mxCell>
        <mxCell id="HJ6NpnuFAOiJMe3mfY7o-1" value="" style="rounded=0;whiteSpace=wrap;html=1;fillColor=#ffe6cc;strokeColor=#d79b00;" vertex="1" parent="1">
          <mxGeometry x="820" y="360" width="120" height="100" as="geometry" />
        </mxCell>
        <mxCell id="HJ6NpnuFAOiJMe3mfY7o-15" value="" style="rounded=0;whiteSpace=wrap;html=1;rotation=-175;fillColor=#d5e8d4;strokeColor=#82b366;" vertex="1" parent="1">
          <mxGeometry x="931.46" y="560" width="90" height="30" as="geometry" />
        </mxCell>
        <mxCell id="HJ6NpnuFAOiJMe3mfY7o-22" value="" style="rounded=0;whiteSpace=wrap;html=1;rotation=90;fillColor=#fff2cc;strokeColor=#d6b656;" vertex="1" parent="1">
          <mxGeometry x="-20" y="390" width="300" height="120" as="geometry" />
        </mxCell>
        <mxCell id="HJ6NpnuFAOiJMe3mfY7o-23" value="" style="rounded=0;whiteSpace=wrap;html=1;rotation=45;fillColor=#f8cecc;strokeColor=#b85450;" vertex="1" parent="1">
          <mxGeometry x="130" y="710" width="120" height="30" as="geometry" />
        </mxCell>
        <mxCell id="HJ6NpnuFAOiJMe3mfY7o-24" value="" style="rounded=0;whiteSpace=wrap;html=1;rotation=45;fillColor=#f8cecc;strokeColor=#b85450;" vertex="1" parent="1">
          <mxGeometry x="105" y="617.93" width="50" height="50" as="geometry" />
        </mxCell>
        <mxCell id="HJ6NpnuFAOiJMe3mfY7o-26" value="" style="rounded=0;whiteSpace=wrap;html=1;rotation=120;fillColor=#fff2cc;strokeColor=#d6b656;" vertex="1" parent="1">
          <mxGeometry x="380" y="505" width="140" height="80" as="geometry" />
        </mxCell>
        <mxCell id="HJ6NpnuFAOiJMe3mfY7o-27" value="" style="rounded=0;whiteSpace=wrap;html=1;rotation=30;fillColor=#f8cecc;strokeColor=#b85450;" vertex="1" parent="1">
          <mxGeometry x="474" y="420" width="60" height="60" as="geometry" />
        </mxCell>
        <mxCell id="HJ6NpnuFAOiJMe3mfY7o-28" value="" style="rounded=0;whiteSpace=wrap;html=1;rotation=300;fillColor=#fff2cc;strokeColor=#d6b656;" vertex="1" parent="1">
          <mxGeometry x="364" y="240" width="160" height="80" as="geometry" />
        </mxCell>
        <mxCell id="HJ6NpnuFAOiJMe3mfY7o-29" value="" style="ellipse;whiteSpace=wrap;html=1;aspect=fixed;fillColor=#ffe6cc;strokeColor=#d79b00;" vertex="1" parent="1">
          <mxGeometry x="310" y="450" width="80" height="80" as="geometry" />
        </mxCell>
        <mxCell id="HJ6NpnuFAOiJMe3mfY7o-30" value="" style="ellipse;whiteSpace=wrap;html=1;aspect=fixed;fillColor=#ffe6cc;strokeColor=#d79b00;" vertex="1" parent="1">
          <mxGeometry x="490" y="290" width="80" height="80" as="geometry" />
        </mxCell>
        <mxCell id="HJ6NpnuFAOiJMe3mfY7o-33" value="" style="endArrow=none;html=1;rounded=0;entryX=0.457;entryY=0.003;entryDx=0;entryDy=0;entryPerimeter=0;" edge="1" parent="1" target="HJ6NpnuFAOiJMe3mfY7o-32">
          <mxGeometry width="50" height="50" relative="1" as="geometry">
            <mxPoint x="413.56" y="42.44" as="sourcePoint" />
            <mxPoint x="413" y="29.999999999999986" as="targetPoint" />
          </mxGeometry>
        </mxCell>
        <mxCell id="HJ6NpnuFAOiJMe3mfY7o-35" value="" style="ellipse;whiteSpace=wrap;html=1;aspect=fixed;fillColor=#ffe6cc;strokeColor=#d79b00;" vertex="1" parent="1">
          <mxGeometry x="470" y="670" width="180" height="180" as="geometry" />
        </mxCell>
        <mxCell id="HJ6NpnuFAOiJMe3mfY7o-36" value="" style="ellipse;whiteSpace=wrap;html=1;aspect=fixed;fillColor=#f8cecc;strokeColor=#b85450;" vertex="1" parent="1">
          <mxGeometry x="380" y="60" width="80" height="80" as="geometry" />
        </mxCell>
        <mxCell id="HJ6NpnuFAOiJMe3mfY7o-37" value="" style="rounded=0;whiteSpace=wrap;html=1;fillColor=#f5f5f5;strokeColor=#666666;fontColor=#333333;rotation=15;" vertex="1" parent="1">
          <mxGeometry x="490" y="65" width="110" height="70" as="geometry" />
        </mxCell>
      </root>
    </mxGraphModel>
  </diagram>
</mxfile>
